<svg id="Layer_1" data-name="Layer 1" xmlns="http://www.w3.org/2000/svg" viewBox="0 0 1440.4 1334.41"><defs><style>.cls-1{fill:#a2e1f9;}.cls-2{fill:#fff;}.cls-3{fill:#ffc400;}.cls-4{fill:#30c6f8;}</style></defs><path class="cls-1" d="M124.81,1057.05c35.64,87.29,119.14,128.5,172.51,154.84,210.36,103.81,530.15,91.22,760.57-98.88,53.92-44.49,324-320.83,262.61-635.88C1266.2,198.61,1016.73,77.76,755.75,59.42c-192.1-13.5-442.3,53.06-531,223.11-55.79,106.94,11,140.8-34.78,383C150.28,875.16,81.21,950.28,124.81,1057.05Z"/><path d="M1180.52,316a1.31,1.31,0,0,1-1-2.13,171.13,171.13,0,0,0,36.43-87.69,1.31,1.31,0,0,1,2.61.29,173.78,173.78,0,0,1-37,89A1.29,1.29,0,0,1,1180.52,316Z"/><path d="M1060.36,1147.87a1.31,1.31,0,0,1-.41-2.56,230.47,230.47,0,0,0,106-73,1.31,1.31,0,1,1,2,1.66,233,233,0,0,1-107.25,73.86A1.51,1.51,0,0,1,1060.36,1147.87Z"/><path d="M1127.43,1165.69a1.31,1.31,0,0,1-.54-2.51,169.69,169.69,0,0,0,71.75-61.76,1.31,1.31,0,0,1,2.2,1.43,172.4,172.4,0,0,1-72.86,62.72A1.33,1.33,0,0,1,1127.43,1165.69Z"/><path d="M718.89,191.14a1.27,1.27,0,0,1-.47-.09A240.89,240.89,0,0,0,686,181.27a1.31,1.31,0,0,1,.58-2.56,242.76,242.76,0,0,1,32.8,9.89,1.3,1.3,0,0,1,.76,1.69A1.32,1.32,0,0,1,718.89,191.14Z"/><path d="M552.85,183.32a1.31,1.31,0,0,1-.29-2.59c39.41-9.15,77.91-11.06,114.44-5.67a1.31,1.31,0,1,1-.38,2.6c-36.21-5.35-74.38-3.45-113.47,5.63A1.53,1.53,0,0,1,552.85,183.32Z"/><path d="M366.91,294.76a1.31,1.31,0,0,1-.86-2.31c10.63-9.21,21.78-18,33.14-26a1.31,1.31,0,1,1,1.51,2.14c-11.28,8-22.36,16.7-32.94,25.86A1.3,1.3,0,0,1,366.91,294.76Z"/><path d="M228.46,595.68a1.32,1.32,0,0,1-1.31-1.21A298.52,298.52,0,0,1,232.9,511a1.31,1.31,0,0,1,2.57.53,296,296,0,0,0-5.7,82.79,1.31,1.31,0,0,1-1.21,1.41Z"/><path d="M900.74,275.33h-.1a1.32,1.32,0,0,1-1.21-1.41c.07-1,.14-2.06.18-3.08,2.21-48.9-31.29-91.92-79.66-102.3l-33.48-7.17a1.31,1.31,0,0,1,.55-2.57L820.5,166a104.19,104.19,0,0,1,60,37.56A101.91,101.91,0,0,1,902.23,271c0,1.05-.11,2.1-.18,3.16A1.32,1.32,0,0,1,900.74,275.33Z"/><path d="M936.46,258.2h-.09a1.33,1.33,0,0,1-1.22-1.41l.7-9.75a165.43,165.43,0,0,0-17-85.53,1.31,1.31,0,1,1,2.34-1.17,167.89,167.89,0,0,1,17.25,86.89l-.69,9.75A1.31,1.31,0,0,1,936.46,258.2Z"/><path d="M1021.46,1097.4a1.32,1.32,0,0,1-1.23-.84,1.33,1.33,0,0,1,.76-1.7c6.85-2.6,13.73-5.36,20.44-8.22a1.32,1.32,0,0,1,1,2.42c-6.75,2.87-13.65,5.64-20.53,8.26A1.29,1.29,0,0,1,1021.46,1097.4Z"/><path d="M905.84,1130.28a1.31,1.31,0,0,1-.28-2.59c23.6-5.23,51.57-11.78,80.11-20.66a1.31,1.31,0,0,1,.78,2.51c-28.63,8.9-56.67,15.47-80.33,20.71A1.33,1.33,0,0,1,905.84,1130.28Z"/><path class="cls-2" d="M491.62,250.81l-44.73-5.45a14.17,14.17,0,0,0-13.82,6.71l-14.78,24.2L407,248a14.23,14.23,0,0,0-11.48-8.87l-41.14-5a14.31,14.31,0,0,1-12.4-15.94l10.58-87.94a14.24,14.24,0,0,1,15.82-12.49l137.28,16.75A14.29,14.29,0,0,1,518,150.38l-10.58,87.94A14.23,14.23,0,0,1,491.62,250.81Z"/><path d="M418.29,277.58h-.11a1.3,1.3,0,0,1-1.11-.82l-11.33-28.32a12.92,12.92,0,0,0-10.42-8.05l-41.13-5A15.63,15.63,0,0,1,340.64,218L351.22,130a15.54,15.54,0,0,1,5.87-10.45,15.33,15.33,0,0,1,11.41-3.18l137.28,16.75a15.62,15.62,0,0,1,13.54,17.39l-10.58,87.94a15.51,15.51,0,0,1-5.87,10.45,15.34,15.34,0,0,1-11.41,3.19l-44.73-5.46a12.89,12.89,0,0,0-12.54,6.09L419.41,277A1.32,1.32,0,0,1,418.29,277.58ZM366.61,118.91a12.78,12.78,0,0,0-7.9,2.74,13,13,0,0,0-4.89,8.7l-10.58,87.94a13,13,0,0,0,11.26,14.47l41.14,5a15.56,15.56,0,0,1,12.54,9.68l10.35,25.89,13.42-22A15.54,15.54,0,0,1,447,244.05l44.74,5.46a12.73,12.73,0,0,0,9.47-2.64,13,13,0,0,0,4.89-8.7l10.58-87.94a13,13,0,0,0-11.26-14.48L368.18,119A13.77,13.77,0,0,0,366.61,118.91Z"/><path class="cls-3" d="M449,192a13.28,13.28,0,0,0-11.11,3.94l-24.51-13.15c.07-.34.18-.66.22-1a12.11,12.11,0,0,0,0-1.9l27.86-9a13.3,13.3,0,0,0,9.36,5.8,13.49,13.49,0,1,0-11.66-15,13.57,13.57,0,0,0,0,1.91l-27.85,9A13.32,13.32,0,0,0,387,178.5a13.48,13.48,0,0,0,11.66,15,13.28,13.28,0,0,0,11.11-3.94l24.51,13.15c-.07.34-.18.65-.23,1A13.4,13.4,0,1,0,449,192Z"/><path class="cls-2" d="M340.27,335.28l-28.89,13.41a10.12,10.12,0,0,0-5.84,9.19l0,20.06-17.22-12.8a10,10,0,0,0-10.16-1.05L251.6,376.42a10,10,0,0,1-13.31-5l-26-56.8a10.14,10.14,0,0,1,4.91-13.41l88.68-41.13a10,10,0,0,1,13.31,4.95l26,56.8A10.13,10.13,0,0,1,340.27,335.28Z"/><path d="M305.56,379.25a1.31,1.31,0,0,1-.78-.26l-17.23-12.8a8.66,8.66,0,0,0-8.82-.91l-26.57,12.33a11.24,11.24,0,0,1-8.67.35,11.37,11.37,0,0,1-6.4-5.95l-26-56.81a11.46,11.46,0,0,1,5.56-15.14l88.67-41.13a11.32,11.32,0,0,1,15.06,5.59l26,56.81a11.47,11.47,0,0,1-5.56,15.15l-28.9,13.4a8.81,8.81,0,0,0-5.07,8v20.07a1.32,1.32,0,0,1-.72,1.17A1.38,1.38,0,0,1,305.56,379.25Zm4.53-118.75a8.61,8.61,0,0,0-3.64.81l-88.67,41.13a8.83,8.83,0,0,0-4.28,11.67l26,56.81a8.71,8.71,0,0,0,11.57,4.31l26.57-12.33a11.32,11.32,0,0,1,11.5,1.18l15.12,11.24V357.88a11.46,11.46,0,0,1,6.6-10.38l28.89-13.41A8.83,8.83,0,0,0,344,322.42l-26-56.8a8.72,8.72,0,0,0-7.93-5.12Zm30.19,74.78h0Z"/><path class="cls-3" d="M288,300.43a11.25,11.25,0,0,0-9.18.11,10.62,10.62,0,0,0-5.1,4.83,13.52,13.52,0,0,0-1.29,3.67,13.6,13.6,0,0,0-3.59-1.47,10.51,10.51,0,0,0-7,.64,11.37,11.37,0,0,0-6.17,6.84,13.35,13.35,0,0,0,.63,9.63c1.46,3.27,4,5.72,8,7.7,3.59,1.77,8.21,3.13,13.56,4.7,1.82.53,3.89,1.14,6.06,1.8a2.4,2.4,0,0,0,1.73-.11,2.44,2.44,0,0,0,1.24-1.23c.94-2.07,1.87-4,2.68-5.77,2.39-5.07,4.45-9.44,5.51-13.32,1.19-4.33,1.07-7.87-.39-11.14A13.23,13.23,0,0,0,288,300.43Z"/><path class="cls-2" d="M907.17,311.51a24.09,24.09,0,0,0,11.45,1.27c5.86-.63,43.47-12,59-61.87,0,0,79.07,13.28,119.24,10.12s61.77-6.38,61.77-6.38S1134.49,379.54,1046,373.22l-26-1.61c-3.63-.32-50.66-4.46-67.55-5.67-17.57-1.27-64.64,5.68-99.15-5.69s-52.09-28.44-110.45-55.62c-8.54-4-33.46-11.35-33.46-11.35C703,305.71,699.33,321.55,698,343.13c-8.1,131.33-34.53,162.41-57.26,160.68l-14.19-1.68c-6.28-.69-43.7-4.63-96.81-6.61l-6.24-.12h0c2.69,32.2,13.74,70.63,39,109.44,57,87.52,67.28,223.25,28.73,218.32,0,0-45.7-3.52-94-3.41L208.61,817s-98.18-216.23,82.78-189.39c2.15.32,4.75.46,6.89.58,0,0-21.74-48.95-33.33-110.82-7.36-39.25,5.63-97.8,67.95-98.43,37.88-.39,123.4,7.67,123.4,7.67s5.34-7,5.46-7.17c3.12-4.89,35.16-45.75,61.46-113.18,27.17-69.64,147.1-38.24,211.14-43.15l24.82-1.85c40.65-2.74,95.82,23.07,147.93,50.24Z"/><path d="M593.24,824.6a17.42,17.42,0,0,1-2.14-.13c-.39,0-46.14-3.53-93.83-3.4L208.6,818.29a1.31,1.31,0,0,1-1.19-.77,368.66,368.66,0,0,1-20.71-63.17c-7.21-32-11.45-75.87,9.32-103.43,17.46-23.16,49.61-31.45,95.56-24.63,1.44.21,3.07.34,4.66.44a568.55,568.55,0,0,1-32.58-109.14C259.43,495,261.39,463,279.57,440.9c12.51-15.23,30.44-23.06,53.31-23.3,35.67-.35,114.41,6.84,122.81,7.62,2.05-2.68,4.8-6.27,5-6.55.35-.55,1.08-1.57,2.18-3.11A503.78,503.78,0,0,0,522,305.77c20.53-52.63,91.69-48.61,154.48-45.07,21.29,1.21,41.4,2.34,57.78,1.09l24.82-1.86c40.48-2.72,95.35,22.61,148.63,50.38l.06,0a23.45,23.45,0,0,0,10.71,1.13c.41,0,41.28-7.62,57.87-61a1.31,1.31,0,0,1,1.47-.9c.79.13,79.37,13.2,118.92,10.1s61.46-6.34,61.68-6.37a1.31,1.31,0,0,1,1.48,1.54c-.06.32-6.26,31.79-23.26,62.06-22.63,40.29-54,60.2-90.73,57.58-7.75-.48-25.83-1.6-26-1.62-5.16-.45-51-4.47-67.52-5.66-4.89-.35-12.29-.05-20.86.3-22.63.92-53.62,2.18-78.62-6.05-18.73-6.18-32.68-14.12-50.34-24.17-14.88-8.47-33.4-19-60.25-31.51-7.37-3.43-27.42-9.52-32.23-11-6.07,12.09-9.51,27.5-10.8,48.35-5.21,84.55-18.48,136.68-39.42,154.93-5.92,5.15-12.39,7.5-19.25,7-.06,0-13.62-1.62-14.23-1.68-6.89-.76-43.92-4.64-96.72-6.6l-2.17,0-2.55-.05c2.35,25.8,11,64.93,38.67,107.38,46.32,71.14,63.91,179.56,43.75,211.69C603.76,821.6,598.9,824.6,593.24,824.6Zm-93.73-6.16c47,0,91.41,3.38,91.86,3.42,5.63.71,10.25-1.79,13.8-7.45,17.88-28.49,5.41-133.4-43.73-208.85-28.36-43.57-37-83.69-39.19-109.78a1.1,1.1,0,0,1-.06-.37,1.31,1.31,0,0,1,1.23-1.32h.16l4,.08,2.2,0c52.9,2,90,5.86,96.91,6.62.62.06,14.2,1.68,14.2,1.68,6.08.45,11.91-1.68,17.27-6.35,14-12.22,32.09-48.7,38.53-153.11,1.35-21.79,5-37.8,11.59-50.37a1.3,1.3,0,0,1,1.53-.65c1,.3,25.11,7.44,33.64,11.41C770.39,316,789,326.56,803.89,335.05c17.53,10,31.38,17.86,49.87,23.95,24.54,8.09,55.26,6.84,77.69,5.92,8.64-.35,16.11-.65,21.14-.29,16.56,1.19,62.4,5.21,67.58,5.67l25.91,1.61c36.16,2.58,65.86-16.34,88.27-56.25,14.47-25.76,21-52.38,22.59-59.45-6.08.83-26.82,3.51-60,6.12-37.26,2.93-108.61-8.34-118.43-9.94-15.26,47.52-51,60.75-59.75,61.69a25.31,25.31,0,0,1-12.13-1.37l-.19-.1C853.52,285,799.06,259.87,759.27,262.55l-24.81,1.85c-16.55,1.27-36.75.13-58.13-1.08-61.89-3.49-132.05-7.45-151.88,43.4A506.38,506.38,0,0,1,465,417.08c-1,1.46-1.79,2.51-2.13,3,0,.06-.16.25-5.53,7.27a1.33,1.33,0,0,1-1.17.51c-.85-.08-85.86-8-123.26-7.67-22.06.22-39.32,7.74-51.31,22.33C264,464,262.12,495.13,266.24,517.11a560.77,560.77,0,0,0,33.24,110.53,1.3,1.3,0,0,1-.12,1.28,1.35,1.35,0,0,1-1.15.56l-.31,0c-2.15-.12-4.59-.26-6.7-.58-44.93-6.66-76.25,1.29-93.08,23.62-37,49.12,7,153.22,11.35,163.18l287.8,2.76Z"/><path d="M350.17,633.58c-15.2,0-29.74-.78-42.33-2.75a1.31,1.31,0,1,1,.41-2.59c61,9.52,169-9,170.12-9.19a1.31,1.31,0,0,1,.45,2.59C478,621.79,409.2,633.58,350.17,633.58Z"/><path d="M465.13,428.16q-4.85,0-9.52-.34a1.31,1.31,0,0,1-1.21-1.4,1.33,1.33,0,0,1,1.4-1.22c22.37,1.59,47.54-2.62,77-12.87a1.3,1.3,0,0,1,1.67.8,1.32,1.32,0,0,1-.8,1.68C508,423.76,485.43,428.16,465.13,428.16Z"/><path d="M593.29,824.59c-5,0-11.33-2.3-19.28-9-26.57-22.24-36-68.83-44.25-109.94-9.77-48.46-18.21-90.32-50.21-84.23-10,1.9-17.91,7.49-23.46,16.6-16.66,27.35-9.46,81.15,1.75,118.91a1.31,1.31,0,1,1-2.51.75c-11.37-38.28-18.59-92.94-1.48-121,5.95-9.77,14.43-15.76,25.21-17.81,15.68-3,27.49,4.47,36.11,22.79,7.62,16.19,12.26,39.17,17.16,63.5,8.2,40.69,17.5,86.8,43.37,108.45,10.81,9,19.52,10.77,25.89,5.11,23-20.37,11.8-133.4-40.15-213.18-49.08-75.39-45.86-152.33-27.9-182.88,4.64-7.89,10.15-12,15.5-11.66,15.85,1.1,31.82,24.62,47.26,47.37,7.74,11.4,15.05,22.17,21.56,28.73,4,4,18.27,16.73,33.6,10.83,17.62-6.78,39.76-39.15,45.23-154.88a1.31,1.31,0,1,1,2.62.12c-4.38,92.73-20.6,147.09-46.9,157.21-16.82,6.47-32.12-7.11-36.41-11.43-6.69-6.74-14.06-17.6-21.87-29.11-14.39-21.19-30.69-45.21-45.27-46.23-4.31-.29-9,3.39-13.05,10.38-17.63,30-20.64,105.67,27.83,180.11,23.14,35.54,40.74,82.53,48.28,128.94,7,43.14,3.73,76.73-8.58,87.65A14.86,14.86,0,0,1,593.29,824.59Z"/><path d="M709.94,294a1.29,1.29,0,0,1-.74-.23,1.3,1.3,0,0,1-.34-1.82l.35-.65c.84-1.52,1.78-3.21,2.28-3.95,8.64-12.71,21.84-25.91,54.36-27.56a1.31,1.31,0,1,1,.13,2.62c-31.37,1.59-44.05,14.24-52.31,26.41-.49.71-1.62,2.76-2.16,3.75-.26.48-.45.81-.48.86A1.33,1.33,0,0,1,709.94,294Z"/><path d="M1059.74,374.36a149.62,149.62,0,0,1-44.29-8.08c-19.29-6.92-46.24-21-74.78-35.94-11.6-6.07-23.61-12.34-34.94-18a1.31,1.31,0,0,1,1.18-2.35c11.35,5.7,23.36,12,35,18.06,28.45,14.87,55.32,28.93,74.45,35.79a146.11,146.11,0,0,0,43.83,7.92,1.27,1.27,0,0,1,1.33,1.29,1.31,1.31,0,0,1-1.3,1.33Z"/><path d="M461.53,421.2a1.29,1.29,0,0,1-.43-.07,1.34,1.34,0,0,1-.82-1.7c.14-.44.52-1,2.59-3.87A504.17,504.17,0,0,0,522,305.77c20.53-52.63,91.69-48.61,154.48-45.07,22,1.25,42.85,2.42,59.53.94a1.32,1.32,0,0,1,.23,2.62c-16.87,1.5-37.78.31-59.91-.94-61.89-3.49-132.05-7.45-151.88,43.4A506.38,506.38,0,0,1,465,417.08c-1.13,1.59-2.11,3-2.26,3.26A1.24,1.24,0,0,1,461.53,421.2Z"/><path d="M627.49,503.55h-.16c-.39-.05-40.08-4.57-97.76-6.71a1.31,1.31,0,0,1,.1-2.62c57.79,2.15,97.57,6.68,98,6.72a1.31,1.31,0,0,1-.14,2.62Z"/><path d="M340.93,671.56c-53.08,0-113.9-3-114.82-3a1.32,1.32,0,0,1-1.25-1.38,1.3,1.3,0,0,1,1.38-1.24c1.38.07,138.15,6.77,180.06,0a1.32,1.32,0,0,1,1.51,1.09,1.31,1.31,0,0,1-1.09,1.5C392.57,670.81,367.73,671.56,340.93,671.56Z"/><path d="M373.12,705.25a1.31,1.31,0,0,1,0-2.62c10.1-.14,18.45-.39,24.82-.73a1.31,1.31,0,1,1,.15,2.62c-6.41.34-14.8.59-24.94.73Z"/><path d="M345.26,705.4h0c-57.44-.09-131.14-2.14-131.88-2.16a1.32,1.32,0,0,1,.07-2.63c.74,0,74.41,2.08,131.82,2.17a1.31,1.31,0,1,1,0,2.62Z"/><path d="M402.26,739.64H217.67a1.31,1.31,0,1,1,0-2.62H402.26a1.31,1.31,0,0,1,0,2.62Z"/><path class="cls-3" d="M348.5,433.78l77.14,5.94a299.71,299.71,0,0,0,38.61.5l24.88-1.28A8.63,8.63,0,0,1,498,449.27c-2.75,13.89-6.26,38.94-2.13,62.64a8.65,8.65,0,0,1-8.62,10.19l-189.59-3.65a8.6,8.6,0,0,1-8.34-7.39,98.7,98.7,0,0,1,.89-34.42C296.1,449.76,321.25,431.68,348.5,433.78Z"/><path d="M360.13,545.73c-3.75,0-7.54-.12-11.28-.35L295,542a1.31,1.31,0,0,1,.17-2.62L349,542.76c4.08.25,8.22.36,12.29.34l40.61-.27h0a1.31,1.31,0,1,1,0,2.62l-40.6.27Z"/><path d="M345.1,606.08a156.1,156.1,0,0,1-16.47-.88l-13.85-1.49a1.3,1.3,0,0,1-1.16-1.44,1.32,1.32,0,0,1,1.44-1.17l13.85,1.49a152.67,152.67,0,0,0,18.88.84l8-.14a1.31,1.31,0,1,1,0,2.62l-8,.14Z"/><path d="M396.12,578.3c-24.27,0-48.58-1.19-72.64-3.56l-18.89-1.87a1.31,1.31,0,1,1,.26-2.61l18.89,1.86a738.77,738.77,0,0,0,109.51,2.62l77.26-3.91a1.29,1.29,0,0,1,1.37,1.24,1.31,1.31,0,0,1-1.24,1.38l-77.26,3.91Q414.81,578.31,396.12,578.3Z"/><path d="M654.9,456.52h-.07l-52.74-3a1.31,1.31,0,1,1,.14-2.62l52.74,3a1.32,1.32,0,0,1-.07,2.63Z"/><path d="M660.86,424.39h-.06L582.54,421a1.31,1.31,0,1,1,.11-2.62l78.26,3.43a1.31,1.31,0,0,1,0,2.62Z"/><path d="M665.39,389h0l-158.22-5.14a1.31,1.31,0,1,1,.08-2.62l158.22,5.14a1.31,1.31,0,0,1,0,2.62Z"/><path d="M671.06,354.72H671C635.7,351.9,528.12,353,527,353h0a1.31,1.31,0,0,1,0-2.62c1.08,0,108.78-1.11,144.16,1.72a1.31,1.31,0,0,1-.11,2.62Z"/><path class="cls-3" d="M546.78,322h127a3.66,3.66,0,0,0,3.57-2.83c1.56-6.51,6.18-22.85,15.46-33.75a3.7,3.7,0,0,0-2.57-6.14c-22.92-1.14-85.62-3.57-113.47,2a19.28,19.28,0,0,0-6.25,2.41c-6.72,4.06-22.78,15.44-27.32,33.66A3.72,3.72,0,0,0,546.78,322Z"/><path d="M1083,287.92c-43.9,0-90-7.37-90.62-7.46a1.32,1.32,0,1,1,.42-2.6c.8.14,81.45,13,130.56,4.57a1.31,1.31,0,0,1,.45,2.59C1111.59,287.12,1097.42,287.92,1083,287.92Z"/><path d="M1091.65,317.29c-56.1,0-119.56-11-120.25-11.14a1.31,1.31,0,1,1,.45-2.58c.75.13,75.41,13.08,134.13,10.83a1.31,1.31,0,0,1,.1,2.62C1101.35,317.2,1096.53,317.29,1091.65,317.29Z"/><path d="M1071,347.09c-26.07,0-58.27-5.75-58.65-5.82a1.31,1.31,0,1,1,.47-2.58c.45.08,45.21,8.07,71.5,5.13a1.31,1.31,0,1,1,.29,2.61A125.75,125.75,0,0,1,1071,347.09Z"/><path d="M294.26,1061.69H773a18.52,18.52,0,0,1,18.52,18.52v7.17a0,0,0,0,1,0,0H275.74a0,0,0,0,1,0,0v-7.17A18.52,18.52,0,0,1,294.26,1061.69Z" transform="translate(1067.24 2149.06) rotate(180)"/><path d="M275.73,1062.2H576.4l-95.53-283A31.35,31.35,0,0,0,454.49,765H200.32c-11.52,0-18.95,11.26-15.19,21.21,1.5,3.95,3.11,7.85,4.42,11.87Z"/><ellipse class="cls-2" cx="368.6" cy="915.47" rx="20.37" ry="23.55" transform="translate(-238.11 137.1) rotate(-16)"/><rect class="cls-2" x="320.38" y="1058.39" width="210.32" height="2.63"/><rect class="cls-2" x="272.96" y="1058.39" width="24.46" height="2.63"/><path d="M472.38,1173.37c-49.47,0-90.56-2.63-122.92-7.9-49-8-78.07-22-86.31-41.66-10.82-25.83,17.93-51.3,19.15-52.37a1.31,1.31,0,1,1,1.73,2c-.29.25-28.55,25.3-18.45,49.38,9.89,23.59,56.47,48,206.53,48,44.64,0,98.41-2.15,163.12-7.13,45.61-3.5,129-11.63,171.88-19.64a1.31,1.31,0,0,1,.48,2.58c-43,8-126.49,16.17-172.15,19.68C573.76,1171,519.3,1173.37,472.38,1173.37Z"/><path class="cls-4" d="M1138,647.73s71.07,4.42,99.82,43.11c19.08,25.67,17.3,78.29,7.19,155.09-6.67,50.66-19,75.88-30.8,107-29.8,78.34-75.5,99.78-123.35,104.16-59.7,5.47-270.57,2.48-320.46,1.66a15.46,15.46,0,0,1-13.53-8.52l-3.21-6.36c-3.4-6.72-4.33-27.57-2.85-38.69a22,22,0,0,1,11.08-16.57,10.56,10.56,0,0,1,4.08-1.38l99.87-11.45s96.73-124.1,52.8-183.91c-15.81-21.52-88.9,24.34-152.73,15.16-54-7.78-112.47-102.27-129.09-131a27.58,27.58,0,0,1-3.2-19.19c2-10.17,6.86-24.68,18.14-30.88,9.42-5.18,27-14,43.62,3.42,0,0,41.66,62.89,91.81,64.42s105.35-66.62,267.39-54.92Z"/><path class="cls-2" d="M864.55,975.2l-.23-2.62c97.57-8.51,263.46-45.43,278.33-197l2.62.26c-7.1,72.25-49,126.53-124.66,161.35C977.35,957.17,924.84,969.93,864.55,975.2Z"/><path d="M666.07,681.75c-14.43,0-23.81-15.47-24.21-16.13a1.32,1.32,0,0,1,2.26-1.35c.09.15,9.16,15.05,22.23,14.85,10-.16,19.9-8.9,29.41-26a1.31,1.31,0,0,1,2.29,1.27c-10,18-20.66,27.18-31.68,27.34Z"/><path d="M801.78,1031.24a1.42,1.42,0,0,1-.45-.08,1.32,1.32,0,0,1-.79-1.68c2.28-6.31,2.07-12-.64-16.82-6-10.8-22.37-14.36-22.54-14.4a1.31,1.31,0,0,1,.54-2.57c.72.16,17.7,3.85,24.3,15.69,3.09,5.55,3.36,11.93.81,19A1.31,1.31,0,0,1,801.78,1031.24Z"/><path class="cls-2" d="M774.6,1016.31a16.71,16.71,0,0,0-10.48-6.41,64.91,64.91,0,0,1-8.89-2.22l-40-12.62a28.58,28.58,0,0,0-21.74,2.45c-20.09,11.06-61.31,36-54.78,50.92,7,16.12,43.63,1,56.51-4.9a12.36,12.36,0,0,1,9.41-.38c7.88,2.78,23.36,8,32.28,9.26,7.38,1,14-2.48,19.41-6.75a19.61,19.61,0,0,1,8.66-3.8,16.94,16.94,0,0,0,11.84-8.54l.06-.11a14.49,14.49,0,0,0-1.28-15.62Z"/><path d="M653.19,1056.94a24.27,24.27,0,0,1-8.52-1.34,12.24,12.24,0,0,1-7.19-6.64c-6.78-15.51,31.77-39.62,55.34-52.6a30,30,0,0,1,22.73-2.56l40.08,12.63a63.26,63.26,0,0,0,8.7,2.18,17.88,17.88,0,0,1,11.31,6.9l1,1.28a15.83,15.83,0,0,1,1.4,17,18.28,18.28,0,0,1-12.81,9.32,18.22,18.22,0,0,0-8.1,3.54c-7.14,5.66-13.82,8-20.4,7-9-1.27-24.23-6.39-32.54-9.32a11,11,0,0,0-8.42.33C686.87,1048.8,667.4,1056.94,653.19,1056.94Zm54.07-61.67a27.19,27.19,0,0,0-13.17,3.39c-38.22,21.05-58.48,39.46-54.21,49.24a9.54,9.54,0,0,0,5.72,5.24c12.62,4.8,38.5-6,49-10.81a13.78,13.78,0,0,1,10.39-.42c8.22,2.91,23.31,8,32,9.2,5.83.83,11.85-1.29,18.4-6.48a21.14,21.14,0,0,1,9.23-4.06,15.62,15.62,0,0,0,10.94-7.87,13.26,13.26,0,0,0-1.11-14.32l-1-1.27h0a15.22,15.22,0,0,0-9.64-5.91,65.36,65.36,0,0,1-9.07-2.27l-40-12.62A28.34,28.34,0,0,0,707.26,995.27Z"/><path class="cls-2" d="M544,533.26a7.5,7.5,0,0,1,8.64-4.93c10.35,2.2,63.61,13.53,73.54,15.71s10.33,12.86,16,22.65c4.92,8.5,21.85,39.67,40.3,61.39a20.32,20.32,0,0,1,2,23.36c-2.48,4.26-5.64,8.45-9.38,10.92-9.94,6.56-17.33,14.42-38.11-35.25a64.92,64.92,0,0,1-18.59-15s-32.39,38.2-40.67-39.36a17.26,17.26,0,0,1,8.45-17c.48-.27,1-.54,1.51-.81l-38.8-12A7.57,7.57,0,0,1,544,533.26Z"/><path d="M664.69,668.52a8.93,8.93,0,0,1-2.65-.4c-7.43-2.22-15.24-14.21-26.08-40.06a66.51,66.51,0,0,1-17.59-14c-2.94,3-11.76,11-21,8.16-10.74-3.3-17.77-19.9-20.91-49.34a18.65,18.65,0,0,1,8-17.59l-35.91-11.12a8.76,8.76,0,0,1-5.25-4.44,8.86,8.86,0,0,1,9.67-12.72c.62.13,62.61,13.31,73.54,15.71,7.61,1.67,10.14,7.94,12.83,14.57a67.32,67.32,0,0,0,4,8.7c.54.93,1.23,2.14,2,3.57,6.52,11.49,21.78,38.38,38.13,57.63a21.65,21.65,0,0,1,2.15,24.87c-3.07,5.27-6.37,9.1-9.8,11.36l-1.27.85C671.46,666.38,668.29,668.52,664.69,668.52Zm-46.3-57.69a1.3,1.3,0,0,1,1,.45,63.9,63.9,0,0,0,18.17,14.64,1.29,1.29,0,0,1,.64.68c10.32,24.68,18.14,37.07,24.6,39,3.54,1.06,6.67-1,10.29-3.48.42-.29.85-.58,1.29-.86,3.09-2,6.1-5.57,9-10.49a19,19,0,0,0-1.88-21.85c-16.51-19.44-31.86-46.48-38.41-58-.81-1.43-1.49-2.63-2-3.56a68.78,68.78,0,0,1-4.18-9c-2.62-6.5-4.7-11.62-11-13C615,542.93,553,529.75,552.36,529.61a6.25,6.25,0,0,0-3.09,12.09l38.8,12a1.31,1.31,0,0,1,.21,2.42c-.51.26-1,.52-1.46.78A16,16,0,0,0,579,572.64c3.76,35.24,12.45,45.07,19.07,47.11,9.5,2.92,19.19-8.34,19.29-8.46a1.29,1.29,0,0,1,1-.46ZM544,533.26h0Z"/><path d="M625.81,596a1.29,1.29,0,0,1-.65-.17c-2.54-1.43-7.27-4.67-9.18-6a75.13,75.13,0,0,1-18.86-18.1,13.69,13.69,0,0,1-2.59-8.22c.14-5.3,3.61-6.47,5.28-7,6.23-2.1,16.7,4.08,17.15,4.34a1.32,1.32,0,0,1-1.35,2.26c-2.73-1.63-10.74-5.54-15-4.12-1.59.54-3.39,1.15-3.49,4.62a11.05,11.05,0,0,0,2.12,6.64c2.45,3.51,8.07,10.43,18.18,17.43,1.91,1.32,6.56,4.51,9,5.88a1.31,1.31,0,0,1-.64,2.46Z"/><path d="M618.82,613.9a1.3,1.3,0,0,1-.94-.4c-8.54-8.76-8-18.09-8-18.48a1.32,1.32,0,0,1,1.4-1.22,1.3,1.3,0,0,1,1.22,1.39c0,.08-.41,8.59,7.27,16.48a1.31,1.31,0,0,1-.94,2.23Z"/><path class="cls-2" d="M1127.26,644.1l10.48-83.8-73,22.54-7.36,49.08c-1.77,13.19,8,22.44,8,22.44,12,12.54,31.45,14.06,47.1,6.73l3.63-1.69A19.55,19.55,0,0,0,1127.26,644.1Z"/><path d="M1092.9,666.88c-10.88,0-21.14-4-28.4-11.61-.37-.35-10.21-9.82-8.38-23.52l7.38-49.1a1.31,1.31,0,0,1,.91-1.06l72.94-22.54a1.28,1.28,0,0,1,1.23.25,1.31,1.31,0,0,1,.46,1.16l-10.48,83.81a20.74,20.74,0,0,1-11.83,16.32l-3.62,1.69A47.76,47.76,0,0,1,1092.9,666.88Zm-26.93-83-7.25,48.27c-1.66,12.36,7.54,21.2,7.63,21.29,10.83,11.36,29.58,14,45.65,6.49l3.62-1.69A18.17,18.17,0,0,0,1126,643.94l10.22-81.78Z"/><path d="M1061.16,437.74c18.07,2.1-7.6,16.6,61.91,8.82,27.68-3.09,9,25.38,16.21,24.59,26.53-2.89,25.62-2.82,37.4,2.58,7.79,3.58,10.51,19.58,7,30.57-4.59,14.52-17.51,16.22-33.78,45.74-11.42,20.73-11.86,34.46-21.25,36.13s-14-11.45-24.52-10.39c-13.59,1.38-14.91,24.31-29.14,31.43-9,4.48-28,4-55.14-15.68a11.36,11.36,0,0,1-3.61-14c3-6.33,6.76-14.3,11-21.61,20.3-34.84,35-40.95,31.86-51.45-4.8-16.07-34.21-12.48-36.74-25.43C1019.79,465.56,1036.42,434.88,1061.16,437.74Z"/><path class="cls-2" d="M1112.53,512.83l-6.77,8.68a113,113,0,0,0-8.69,12.88c-4.87,8.42-13.36,22.84-18.73,30.55-7.88,11.32-44.56-10.61-44.56-10.61l-1-8-4.25-2.66a5.57,5.57,0,0,1-2-2.06,5.39,5.39,0,0,1,.85-6.28c8.57-8.91,26.72-29.09,35.34-48.55A58.36,58.36,0,0,1,1112.53,512.83Z"/><path d="M1113.85,512.88c-1.42,2-2.88,4-4.37,6l-2.25,3c-.76,1-1.41,1.82-2.1,2.76a114.5,114.5,0,0,0-7.43,11.5c-4.64,8-9.36,15.95-14.34,23.77-1.26,2-2.52,3.9-3.86,5.82a9.52,9.52,0,0,1-6.87,3.73,24.6,24.6,0,0,1-7.3-.38,54.16,54.16,0,0,1-6.88-1.76,139.12,139.12,0,0,1-25.35-11.79,1.28,1.28,0,0,1-.63-.94v0l-1-8,.6.94c-1.32-.84-2.59-1.74-3.88-2.64a7.64,7.64,0,0,1-2-1.82,6.56,6.56,0,0,1-1.11-2.53,6.39,6.39,0,0,1,1.12-5.21,5.27,5.27,0,0,1,.44-.52l.4-.43.8-.85,1.59-1.71q6.35-6.87,12.19-14.16c3.88-4.86,7.56-9.88,10.94-15.08a116.64,116.64,0,0,0,8.93-16.23l0,0a1.23,1.23,0,0,1,1.07-.73,54.52,54.52,0,0,1,15,1.54,57.8,57.8,0,0,1,14,5.23,59.57,59.57,0,0,1,17.5,13.94,27.48,27.48,0,0,1,2.5,3.22C1112.36,510.55,1113.12,511.73,1113.85,512.88Zm-2.63-.09c-.74-.81-1.45-1.58-2.11-2.38s-1.18-1.6-2.08-2.5a59.47,59.47,0,0,0-16.72-13.3,54.71,54.71,0,0,0-13.4-5,53.52,53.52,0,0,0-14.13-1.53l1.09-.77a119.45,119.45,0,0,1-9.36,16.46c-3.51,5.24-7.31,10.25-11.27,15.12s-8.12,9.57-12.42,14.14l-1.62,1.7-.82.85-.4.42c-.1.12-.22.24-.31.37a4.21,4.21,0,0,0,1.68,6.52c1.37.76,2.74,1.51,4.07,2.34a1.28,1.28,0,0,1,.6.92h0l1.07,8-.64-1a135.57,135.57,0,0,0,24.83,11.49,52.12,52.12,0,0,0,6.53,1.67,22.26,22.26,0,0,0,6.48.34,6.75,6.75,0,0,0,5-2.59c1.3-1.88,2.55-3.8,3.79-5.74,4.93-7.76,9.6-15.72,14.25-23.68A116.7,116.7,0,0,1,1103,523c.69-.92,1.45-1.9,2.11-2.74l2-2.49C1108.41,516.08,1109.8,514.45,1111.22,512.79Z"/><path class="cls-2" d="M1099.54,545s16.25-20.88,24.12-11.42S1113.07,565.55,1099.54,545Z"/></svg>